<?xml version="1.0" encoding="UTF-8" standalone="no"?><svg xmlns="http://www.w3.org/2000/svg" xmlns:xlink="http://www.w3.org/1999/xlink" contentScriptType="application/ecmascript" contentStyleType="text/css" height="718px" preserveAspectRatio="none" style="width:683px;height:718px;" version="1.1" viewBox="0 0 683 718" width="683px" zoomAndPan="magnify"><defs><filter height="300%" id="f1nyoy2bct8fe5" width="300%" x="-1" y="-1"><feGaussianBlur result="blurOut" stdDeviation="2.0"/><feColorMatrix in="blurOut" result="blurOut2" type="matrix" values="0 0 0 0 0 0 0 0 0 0 0 0 0 0 0 0 0 0 .4 0"/><feOffset dx="4.0" dy="4.0" in="blurOut2" result="blurOut3"/><feBlend in="SourceGraphic" in2="blurOut3" mode="normal"/></filter></defs><g><!--class Quest--><rect fill="#FEFECE" filter="url(#f1nyoy2bct8fe5)" height="288.2363" id="Quest" style="stroke: #A80036; stroke-width: 1.5;" width="231" x="263" y="8"/><ellipse cx="357.75" cy="24" fill="#ADD1B2" rx="11" ry="11" style="stroke: #A80036; stroke-width: 1.0;"/><path d="M360.7231,29.6431 Q360.1421,29.9419 359.5029,30.0913 Q358.8638,30.2407 358.1582,30.2407 Q355.6514,30.2407 354.3315,28.5889 Q353.0117,26.937 353.0117,23.8159 Q353.0117,20.6865 354.3315,19.0347 Q355.6514,17.3828 358.1582,17.3828 Q358.8638,17.3828 359.5112,17.5322 Q360.1587,17.6816 360.7231,17.9805 L360.7231,20.7031 Q360.0923,20.1221 359.4988,19.8523 Q358.9053,19.5825 358.2744,19.5825 Q356.9297,19.5825 356.2449,20.6492 Q355.5601,21.7158 355.5601,23.8159 Q355.5601,25.9077 356.2449,26.9744 Q356.9297,28.041 358.2744,28.041 Q358.9053,28.041 359.4988,27.7712 Q360.0923,27.5015 360.7231,26.9204 Z "/><text fill="#000000" font-family="sans-serif" font-size="12" lengthAdjust="spacingAndGlyphs" textLength="33" x="378.25" y="28.5352">Quest</text><line style="stroke: #A80036; stroke-width: 1.5;" x1="264" x2="493" y1="40" y2="40"/><rect fill="none" height="6" style="stroke: #C82930; stroke-width: 1.0;" width="6" x="271" y="48.9775"/><text fill="#000000" font-family="sans-serif" font-size="11" lengthAdjust="spacingAndGlyphs" textLength="67" x="283" y="54.6348">name: String</text><rect fill="none" height="6" style="stroke: #C82930; stroke-width: 1.0;" width="6" x="271" y="61.9326"/><text fill="#000000" font-family="sans-serif" font-size="11" lengthAdjust="spacingAndGlyphs" textLength="99" x="283" y="67.5898">description: String</text><rect fill="none" height="6" style="stroke: #C82930; stroke-width: 1.0;" width="6" x="271" y="74.8877"/><text fill="#000000" font-family="sans-serif" font-size="11" lengthAdjust="spacingAndGlyphs" textLength="90" x="283" y="80.5449">state: QuestState</text><rect fill="none" height="6" style="stroke: #C82930; stroke-width: 1.0;" width="6" x="271" y="87.8428"/><text fill="#000000" font-family="sans-serif" font-size="11" lengthAdjust="spacingAndGlyphs" textLength="170" x="283" y="93.5">objectives: QuestObjective[1..n]</text><rect fill="none" height="6" style="stroke: #C82930; stroke-width: 1.0;" width="6" x="271" y="100.7979"/><text fill="#000000" font-family="sans-serif" font-size="11" lengthAdjust="spacingAndGlyphs" textLength="101" x="283" y="106.4551">rewards: Loot[0..n]</text><rect fill="none" height="6" style="stroke: #C82930; stroke-width: 1.0;" width="6" x="271" y="113.7529"/><text fill="#000000" font-family="sans-serif" font-size="11" lengthAdjust="spacingAndGlyphs" textLength="134" x="283" y="119.4102">prerequsites: Quest[0..n]</text><line style="stroke: #A80036; stroke-width: 1.0;" x1="264" x2="493" y1="125.7305" y2="125.7305"/><ellipse cx="274" cy="154.6631" fill="#84BE84" rx="3" ry="3" style="stroke: #038048; stroke-width: 1.0;"/><text fill="#000000" font-family="sans-serif" font-size="11" lengthAdjust="spacingAndGlyphs" textLength="90" x="283" y="157.3203">String getName()</text><ellipse cx="274" cy="167.6182" fill="#84BE84" rx="3" ry="3" style="stroke: #038048; stroke-width: 1.0;"/><text fill="#000000" font-family="sans-serif" font-size="11" lengthAdjust="spacingAndGlyphs" textLength="122" x="283" y="170.2754">String getDescription()</text><ellipse cx="274" cy="180.5732" fill="#84BE84" rx="3" ry="3" style="stroke: #038048; stroke-width: 1.0;"/><text fill="#000000" font-family="sans-serif" font-size="11" lengthAdjust="spacingAndGlyphs" textLength="78" x="283" y="183.2305">bool getState()</text><ellipse cx="274" cy="193.5283" fill="#84BE84" rx="3" ry="3" style="stroke: #038048; stroke-width: 1.0;"/><text fill="#000000" font-family="sans-serif" font-size="11" lengthAdjust="spacingAndGlyphs" textLength="95" x="283" y="196.1855">bool isComplete()</text><line style="stroke: #A80036; stroke-width: 1.0; stroke-dasharray: 1.0,2.0;" x1="264" x2="359" y1="140.208" y2="140.208"/><text fill="#000000" font-family="sans-serif" font-size="11" lengthAdjust="spacingAndGlyphs" textLength="39" x="359" y="143.8652">Getters</text><line style="stroke: #A80036; stroke-width: 1.0; stroke-dasharray: 1.0,2.0;" x1="398" x2="493" y1="140.208" y2="140.208"/><ellipse cx="274" cy="223.4385" fill="#84BE84" rx="3" ry="3" style="stroke: #038048; stroke-width: 1.0;"/><text fill="#000000" font-family="sans-serif" font-size="11" lengthAdjust="spacingAndGlyphs" textLength="181" x="283" y="226.0957">String[] getObjectiveDisplayText()</text><ellipse cx="274" cy="236.3936" fill="#84BE84" rx="3" ry="3" style="stroke: #038048; stroke-width: 1.0;"/><text fill="#000000" font-family="sans-serif" font-size="11" lengthAdjust="spacingAndGlyphs" textLength="176" x="283" y="239.0508">String[] getRewardsDisplayText()</text><line style="stroke: #A80036; stroke-width: 1.0; stroke-dasharray: 1.0,2.0;" x1="264" x2="351" y1="208.9834" y2="208.9834"/><text fill="#000000" font-family="sans-serif" font-size="11" lengthAdjust="spacingAndGlyphs" textLength="55" x="351" y="212.6406">UI Helpers</text><line style="stroke: #A80036; stroke-width: 1.0; stroke-dasharray: 1.0,2.0;" x1="406" x2="493" y1="208.9834" y2="208.9834"/><rect fill="#F24D5C" height="6" style="stroke: #C82930; stroke-width: 1.0;" width="6" x="271" y="263.3037"/><text fill="#000000" font-family="sans-serif" font-size="11" lengthAdjust="spacingAndGlyphs" textLength="193" x="283" y="268.9609">onPrerequsiteComplete(GameEvent)</text><line style="stroke: #A80036; stroke-width: 1.0; stroke-dasharray: 1.0,2.0;" x1="264" x2="361" y1="251.8486" y2="251.8486"/><text fill="#000000" font-family="sans-serif" font-size="11" lengthAdjust="spacingAndGlyphs" textLength="35" x="361" y="255.5059">Events</text><line style="stroke: #A80036; stroke-width: 1.0; stroke-dasharray: 1.0,2.0;" x1="396" x2="493" y1="251.8486" y2="251.8486"/><line style="stroke: #A80036; stroke-width: 1.0; stroke-dasharray: 1.0,2.0;" x1="264" x2="493" y1="275.2813" y2="275.2813"/><rect fill="#F24D5C" height="6" style="stroke: #C82930; stroke-width: 1.0;" width="6" x="271" y="284.2588"/><text fill="#000000" font-family="sans-serif" font-size="11" lengthAdjust="spacingAndGlyphs" textLength="205" x="283" y="289.916">onObjectiveComplete(QuestObjective)</text><!--class QuestState--><rect fill="#FEFECE" filter="url(#f1nyoy2bct8fe5)" height="119.041" id="QuestState" style="stroke: #A80036; stroke-width: 1.5;" width="93" x="6" y="402"/><ellipse cx="21" cy="421.1328" fill="#EB937F" rx="11" ry="11" style="stroke: #A80036; stroke-width: 1.0;"/><path d="M25.1143,427.1328 L17.3945,427.1328 L17.3945,414.7397 L25.1143,414.7397 L25.1143,416.8979 L19.8433,416.8979 L19.8433,419.5708 L24.6162,419.5708 L24.6162,421.729 L19.8433,421.729 L19.8433,424.9746 L25.1143,424.9746 Z "/><text fill="#000000" font-family="sans-serif" font-size="12" font-style="italic" lengthAdjust="spacingAndGlyphs" textLength="44" x="43.5" y="418.6016">«enum»</text><text fill="#000000" font-family="sans-serif" font-size="12" lengthAdjust="spacingAndGlyphs" textLength="61" x="35" y="432.7344">QuestState</text><line style="stroke: #A80036; stroke-width: 1.5;" x1="7" x2="98" y1="440.2656" y2="440.2656"/><text fill="#000000" font-family="sans-serif" font-size="11" lengthAdjust="spacingAndGlyphs" textLength="74" x="12" y="454.9004">UNAVAILABLE</text><text fill="#000000" font-family="sans-serif" font-size="11" lengthAdjust="spacingAndGlyphs" textLength="58" x="12" y="467.8555">AVAILABLE</text><text fill="#000000" font-family="sans-serif" font-size="11" lengthAdjust="spacingAndGlyphs" textLength="55" x="12" y="480.8105">OBTAINED</text><text fill="#000000" font-family="sans-serif" font-size="11" lengthAdjust="spacingAndGlyphs" textLength="72" x="12" y="493.7656">IN_PROGRESS</text><text fill="#000000" font-family="sans-serif" font-size="11" lengthAdjust="spacingAndGlyphs" textLength="65" x="12" y="506.7207">COMPLETED</text><line style="stroke: #A80036; stroke-width: 1.5;" x1="7" x2="98" y1="513.041" y2="513.041"/><!--class QuestObjective--><rect fill="#FEFECE" filter="url(#f1nyoy2bct8fe5)" height="211.4609" id="QuestObjective" style="stroke: #A80036; stroke-width: 1.5;" width="181" x="134" y="356"/><ellipse cx="176.9" cy="372" fill="#ADD1B2" rx="11" ry="11" style="stroke: #A80036; stroke-width: 1.0;"/><path d="M179.8731,377.6431 Q179.2921,377.9419 178.6529,378.0913 Q178.0138,378.2407 177.3082,378.2407 Q174.8014,378.2407 173.4815,376.5889 Q172.1617,374.937 172.1617,371.8159 Q172.1617,368.6865 173.4815,367.0347 Q174.8014,365.3828 177.3082,365.3828 Q178.0138,365.3828 178.6612,365.5322 Q179.3087,365.6816 179.8731,365.9805 L179.8731,368.7031 Q179.2423,368.1221 178.6488,367.8523 Q178.0553,367.5825 177.4244,367.5825 Q176.0797,367.5825 175.3949,368.6492 Q174.7101,369.7158 174.7101,371.8159 Q174.7101,373.9077 175.3949,374.9744 Q176.0797,376.041 177.4244,376.041 Q178.0553,376.041 178.6488,375.7712 Q179.2423,375.5015 179.8731,374.9204 Z "/><text fill="#000000" font-family="sans-serif" font-size="12" lengthAdjust="spacingAndGlyphs" textLength="87" x="197.1" y="376.5352">QuestObjective</text><line style="stroke: #A80036; stroke-width: 1.5;" x1="135" x2="314" y1="388" y2="388"/><rect fill="none" height="6" style="stroke: #C82930; stroke-width: 1.0;" width="6" x="142" y="396.9775"/><text fill="#000000" font-family="sans-serif" font-size="11" lengthAdjust="spacingAndGlyphs" textLength="99" x="154" y="402.6348">description: String</text><rect fill="none" height="6" style="stroke: #C82930; stroke-width: 1.0;" width="6" x="142" y="409.9326"/><text fill="#000000" font-family="sans-serif" font-size="11" lengthAdjust="spacingAndGlyphs" textLength="155" x="154" y="415.5898">target: QuestObjectiveTarget</text><rect fill="none" height="6" style="stroke: #C82930; stroke-width: 1.0;" width="6" x="142" y="422.8877"/><text fill="#000000" font-family="sans-serif" font-size="11" lengthAdjust="spacingAndGlyphs" textLength="96" x="154" y="428.5449">currentValue: uint</text><rect fill="none" height="6" style="stroke: #C82930; stroke-width: 1.0;" width="6" x="142" y="435.8428"/><text fill="#000000" font-family="sans-serif" font-size="11" lengthAdjust="spacingAndGlyphs" textLength="79" x="154" y="441.5">goalValue: uint</text><rect fill="none" height="6" style="stroke: #C82930; stroke-width: 1.0;" width="6" x="142" y="448.7979"/><text fill="#000000" font-family="sans-serif" font-size="11" lengthAdjust="spacingAndGlyphs" textLength="73" x="154" y="454.4551">parent: Quest</text><line style="stroke: #A80036; stroke-width: 1.0;" x1="135" x2="314" y1="460.7754" y2="460.7754"/><ellipse cx="145" cy="489.708" fill="#84BE84" rx="3" ry="3" style="stroke: #038048; stroke-width: 1.0;"/><text fill="#000000" font-family="sans-serif" font-size="11" lengthAdjust="spacingAndGlyphs" textLength="95" x="154" y="492.3652">bool isComplete()</text><ellipse cx="145" cy="502.6631" fill="#84BE84" rx="3" ry="3" style="stroke: #038048; stroke-width: 1.0;"/><text fill="#000000" font-family="sans-serif" font-size="11" lengthAdjust="spacingAndGlyphs" textLength="122" x="154" y="505.3203">String getDescription()</text><ellipse cx="145" cy="515.6182" fill="#84BE84" rx="3" ry="3" style="stroke: #038048; stroke-width: 1.0;"/><text fill="#000000" font-family="sans-serif" font-size="11" lengthAdjust="spacingAndGlyphs" textLength="97" x="154" y="518.2754">uint getProgress()</text><ellipse cx="145" cy="528.5732" fill="#84BE84" rx="3" ry="3" style="stroke: #038048; stroke-width: 1.0;"/><text fill="#000000" font-family="sans-serif" font-size="11" lengthAdjust="spacingAndGlyphs" textLength="73" x="154" y="531.2305">uint getGoal()</text><line style="stroke: #A80036; stroke-width: 1.0; stroke-dasharray: 1.0,2.0;" x1="135" x2="205" y1="475.2529" y2="475.2529"/><text fill="#000000" font-family="sans-serif" font-size="11" lengthAdjust="spacingAndGlyphs" textLength="39" x="205" y="478.9102">Getters</text><line style="stroke: #A80036; stroke-width: 1.0; stroke-dasharray: 1.0,2.0;" x1="244" x2="314" y1="475.2529" y2="475.2529"/><rect fill="#F24D5C" height="6" style="stroke: #C82930; stroke-width: 1.0;" width="6" x="142" y="555.4834"/><text fill="#000000" font-family="sans-serif" font-size="11" lengthAdjust="spacingAndGlyphs" textLength="116" x="154" y="561.1406">onTarget(GameEvent)</text><line style="stroke: #A80036; stroke-width: 1.0; stroke-dasharray: 1.0,2.0;" x1="135" x2="207" y1="544.0283" y2="544.0283"/><text fill="#000000" font-family="sans-serif" font-size="11" lengthAdjust="spacingAndGlyphs" textLength="35" x="207" y="547.6855">Events</text><line style="stroke: #A80036; stroke-width: 1.0; stroke-dasharray: 1.0,2.0;" x1="242" x2="314" y1="544.0283" y2="544.0283"/><!--class Loot--><rect fill="#FEFECE" filter="url(#f1nyoy2bct8fe5)" height="32" id="Loot" style="stroke: #A80036; stroke-width: 1.5;" width="56" x="350.5" y="445.5"/><ellipse cx="365.5" cy="461.5" fill="#ADD1B2" rx="11" ry="11" style="stroke: #A80036; stroke-width: 1.0;"/><path d="M368.4731,467.1431 Q367.8921,467.4419 367.2529,467.5913 Q366.6138,467.7407 365.9082,467.7407 Q363.4014,467.7407 362.0815,466.0889 Q360.7617,464.437 360.7617,461.3159 Q360.7617,458.1865 362.0815,456.5347 Q363.4014,454.8828 365.9082,454.8828 Q366.6138,454.8828 367.2612,455.0322 Q367.9087,455.1816 368.4731,455.4805 L368.4731,458.2031 Q367.8423,457.6221 367.2488,457.3523 Q366.6553,457.0825 366.0244,457.0825 Q364.6797,457.0825 363.9949,458.1492 Q363.3101,459.2158 363.3101,461.3159 Q363.3101,463.4077 363.9949,464.4744 Q364.6797,465.541 366.0244,465.541 Q366.6553,465.541 367.2488,465.2712 Q367.8423,465.0015 368.4731,464.4204 Z "/><text fill="#000000" font-family="sans-serif" font-size="12" lengthAdjust="spacingAndGlyphs" textLength="24" x="379.5" y="466.0352">Loot</text><!--class QuestObjectiveTarget--><rect fill="#FEFECE" filter="url(#f1nyoy2bct8fe5)" height="80.1758" id="QuestObjectiveTarget" style="stroke: #A80036; stroke-width: 1.5;" width="131" x="159" y="627"/><text fill="#000000" font-family="sans-serif" font-size="12" font-style="italic" lengthAdjust="spacingAndGlyphs" textLength="67" x="191" y="643.6016">«dataType»</text><text fill="#000000" font-family="sans-serif" font-size="12" lengthAdjust="spacingAndGlyphs" textLength="125" x="162" y="657.7344">QuestObjectiveTarget</text><line style="stroke: #A80036; stroke-width: 1.5;" x1="160" x2="289" y1="665.2656" y2="665.2656"/><text fill="#000000" font-family="sans-serif" font-size="11" lengthAdjust="spacingAndGlyphs" textLength="93" x="165" y="679.9004">eventType: String</text><text fill="#000000" font-family="sans-serif" font-size="11" lengthAdjust="spacingAndGlyphs" textLength="96" x="165" y="692.8555">eventValue: String</text><line style="stroke: #A80036; stroke-width: 1.5;" x1="160" x2="289" y1="699.1758" y2="699.1758"/><!--class GameEventListener--><rect fill="#FEFECE" filter="url(#f1nyoy2bct8fe5)" height="32" id="GameEventListener" style="stroke: #A80036; stroke-width: 1.5;" width="142" x="356.5" y="651"/><ellipse cx="371.5" cy="667" fill="#B4A7E5" rx="11" ry="11" style="stroke: #A80036; stroke-width: 1.0;"/><path d="M367.4277,662.7651 L367.4277,660.6069 L374.8071,660.6069 L374.8071,662.7651 L372.3418,662.7651 L372.3418,670.8418 L374.8071,670.8418 L374.8071,673 L367.4277,673 L367.4277,670.8418 L369.8931,670.8418 L369.8931,662.7651 Z "/><text fill="#000000" font-family="sans-serif" font-size="12" font-style="italic" lengthAdjust="spacingAndGlyphs" textLength="110" x="385.5" y="671.5352">GameEventListener</text><!--class GameEventDispatcher--><rect fill="#FEFECE" filter="url(#f1nyoy2bct8fe5)" height="32" id="GameEventDispatcher" style="stroke: #A80036; stroke-width: 1.5;" width="159" x="513" y="445.5"/><ellipse cx="528" cy="461.5" fill="#B4A7E5" rx="11" ry="11" style="stroke: #A80036; stroke-width: 1.0;"/><path d="M523.9277,457.2651 L523.9277,455.1069 L531.3071,455.1069 L531.3071,457.2651 L528.8418,457.2651 L528.8418,465.3418 L531.3071,465.3418 L531.3071,467.5 L523.9277,467.5 L523.9277,465.3418 L526.3931,465.3418 L526.3931,457.2651 Z "/><text fill="#000000" font-family="sans-serif" font-size="12" font-style="italic" lengthAdjust="spacingAndGlyphs" textLength="127" x="542" y="466.0352">GameEventDispatcher</text><!--link Quest to QuestState--><path d="M252.1911,235.7644 C206.3032,269.7876 156.0562,311.554 116.5,356 C104.2517,369.7624 93.01,386.1843 83.481,401.9257 " fill="none" id="Quest-QuestState" style="stroke: #A80036; stroke-width: 1.0;"/><polygon fill="#A80036" points="262.8279,227.957,255.6242,228.2827,253.1541,235.0575,260.3578,234.7319,262.8279,227.957" style="stroke: #A80036; stroke-width: 1.0;"/><!--link Quest to QuestObjective--><path d="M300.8415,308.0734 C292.812,324.2107 284.792,340.3288 277.1308,355.7257 " fill="none" id="Quest-QuestObjective" style="stroke: #A80036; stroke-width: 1.0;"/><polygon fill="#A80036" points="306.685,296.3295,300.4309,299.9193,301.3392,307.073,307.5933,303.4832,306.685,296.3295" style="stroke: #A80036; stroke-width: 1.0;"/><!--link Quest to Loot--><path d="M378.5,296.3295 C378.5,355.5845 378.5,416.8863 378.5,445.272 " fill="none" id="Quest-Loot" style="stroke: #A80036; stroke-width: 1.0;"/><!--link QuestObjective to QuestObjectiveTarget--><path d="M224.5,580.6453 C224.5,597.2221 224.5,613.2145 224.5,626.8362 " fill="none" id="QuestObjective-QuestObjectiveTarget" style="stroke: #A80036; stroke-width: 1.0;"/><polygon fill="#A80036" points="224.5,567.2599,220.5,573.2599,224.5,579.2599,228.5,573.2599,224.5,567.2599" style="stroke: #A80036; stroke-width: 1.0;"/><!--link Quest to GameEventListener--><path d="M414.9953,296.2238 C418.8811,316.1906 422.2365,336.5259 424.5,356 C435.9769,454.7409 432.4983,572.302 429.639,630.5497 " fill="none" id="Quest-GameEventListener" style="stroke: #A80036; stroke-width: 1.0;"/><polygon fill="none" points="436.6173,631.1416,428.5513,650.736,422.6376,630.3883,436.6173,631.1416" style="stroke: #A80036; stroke-width: 1.0;"/><!--link Quest to GameEventDispatcher--><path d="M478.2949,296.3295 C512.5442,345.863 547.7825,396.8267 569.8882,428.7973 " fill="none" id="Quest-GameEventDispatcher" style="stroke: #A80036; stroke-width: 1.0;"/><polygon fill="none" points="575.6625,424.8403,581.2793,445.272,564.1471,432.8025,575.6625,424.8403" style="stroke: #A80036; stroke-width: 1.0;"/><!--link QuestObjective to GameEventListener--><path d="M315.0167,553.1314 C344.6242,583.1035 375.493,614.3525 397.3867,636.5158 " fill="none" id="QuestObjective-GameEventListener" style="stroke: #A80036; stroke-width: 1.0;"/><polygon fill="none" points="402.5207,631.7524,411.5961,650.9002,392.5607,641.5911,402.5207,631.7524" style="stroke: #A80036; stroke-width: 1.0;"/><!--
@startuml
Quest *- - QuestState
Quest *- - QuestObjective
Quest - - Loot
QuestObjective *- - QuestObjectiveTarget
Quest - -|> GameEventListener
Quest - -|> GameEventDispatcher
QuestObjective - -|> GameEventListener

interface GameEventListener
interface GameEventDispatcher

class Quest {
    - name: String
    - description: String
    - state: QuestState
    - objectives: QuestObjective[1..n]
    - rewards: Loot[0..n]
    - prerequsites: Quest[0..n]
    - -
    .. Getters ..
    + String getName()
    + String getDescription()
    + bool getState()
    + bool isComplete()
    .. UI Helpers ..
    + String[] getObjectiveDisplayText()
    + String[] getRewardsDisplayText()
    .. Events ..
    - onPrerequsiteComplete(GameEvent)
    ..
    - onObjectiveComplete(QuestObjective)
}

class QuestObjective {
    - description: String
    - target: QuestObjectiveTarget
    - currentValue: uint
    - goalValue: uint
    - parent: Quest
    - -
    .. Getters ..
    + bool isComplete()
    + String getDescription()
    + uint getProgress()
    + uint getGoal()
    .. Events ..
    - onTarget(GameEvent)
}

enum QuestState <<enum>> {
    UNAVAILABLE
    AVAILABLE  
    OBTAINED   
    IN_PROGRESS
    COMPLETED 
}

class QuestObjectiveTarget <<dataType>> {
    eventType: String
    eventValue: String
}

hide QuestObjectiveTarget circle
hide interface methods
hide interface fields
hide Loot methods
hide Loot fields
@enduml

PlantUML version 1.2017.20(Mon Dec 11 10:57:05 CST 2017)
(GPL source distribution)
Java Runtime: Java(TM) SE Runtime Environment
JVM: Java HotSpot(TM) 64-Bit Server VM
Java Version: 9.0.1+11
Operating System: Mac OS X
OS Version: 10.13.2
Default Encoding: UTF-8
Language: en
Country: US
--></g></svg>