<?xml version="1.0" encoding="UTF-8" standalone="no"?><svg xmlns="http://www.w3.org/2000/svg" xmlns:xlink="http://www.w3.org/1999/xlink" contentScriptType="application/ecmascript" contentStyleType="text/css" height="749px" preserveAspectRatio="none" style="width:824px;height:749px;" version="1.1" viewBox="0 0 824 749" width="824px" zoomAndPan="magnify"><defs><filter height="300%" id="f1dk41bfoox4n1" width="300%" x="-1" y="-1"><feGaussianBlur result="blurOut" stdDeviation="2.0"/><feColorMatrix in="blurOut" result="blurOut2" type="matrix" values="0 0 0 0 0 0 0 0 0 0 0 0 0 0 0 0 0 0 .4 0"/><feOffset dx="4.0" dy="4.0" in="blurOut2" result="blurOut3"/><feBlend in="SourceGraphic" in2="blurOut3" mode="normal"/></filter></defs><g><!--class Quest--><rect fill="#FEFECE" filter="url(#f1dk41bfoox4n1)" height="327.1016" id="Quest" style="stroke: #A80036; stroke-width: 1.5;" width="231" x="321" y="8"/><ellipse cx="415.75" cy="24" fill="#ADD1B2" rx="11" ry="11" style="stroke: #A80036; stroke-width: 1.0;"/><path d="M418.7231,29.6431 Q418.1421,29.9419 417.5029,30.0913 Q416.8638,30.2407 416.1582,30.2407 Q413.6514,30.2407 412.3315,28.5889 Q411.0117,26.937 411.0117,23.8159 Q411.0117,20.6865 412.3315,19.0347 Q413.6514,17.3828 416.1582,17.3828 Q416.8638,17.3828 417.5112,17.5322 Q418.1587,17.6816 418.7231,17.9805 L418.7231,20.7031 Q418.0923,20.1221 417.4988,19.8523 Q416.9053,19.5825 416.2744,19.5825 Q414.9297,19.5825 414.2449,20.6492 Q413.5601,21.7158 413.5601,23.8159 Q413.5601,25.9077 414.2449,26.9744 Q414.9297,28.041 416.2744,28.041 Q416.9053,28.041 417.4988,27.7712 Q418.0923,27.5015 418.7231,26.9204 Z "/><text fill="#000000" font-family="sans-serif" font-size="12" lengthAdjust="spacingAndGlyphs" textLength="33" x="436.25" y="28.5352">Quest</text><line style="stroke: #A80036; stroke-width: 1.5;" x1="322" x2="551" y1="40" y2="40"/><rect fill="none" height="6" style="stroke: #C82930; stroke-width: 1.0;" width="6" x="329" y="48.9775"/><text fill="#000000" font-family="sans-serif" font-size="11" lengthAdjust="spacingAndGlyphs" textLength="67" x="341" y="54.6348">name: String</text><rect fill="none" height="6" style="stroke: #C82930; stroke-width: 1.0;" width="6" x="329" y="61.9326"/><text fill="#000000" font-family="sans-serif" font-size="11" lengthAdjust="spacingAndGlyphs" textLength="99" x="341" y="67.5898">description: String</text><rect fill="none" height="6" style="stroke: #C82930; stroke-width: 1.0;" width="6" x="329" y="74.8877"/><text fill="#000000" font-family="sans-serif" font-size="11" lengthAdjust="spacingAndGlyphs" textLength="90" x="341" y="80.5449">state: QuestState</text><rect fill="none" height="6" style="stroke: #C82930; stroke-width: 1.0;" width="6" x="329" y="87.8428"/><text fill="#000000" font-family="sans-serif" font-size="11" lengthAdjust="spacingAndGlyphs" textLength="170" x="341" y="93.5">objectives: QuestObjective[1..n]</text><rect fill="none" height="6" style="stroke: #C82930; stroke-width: 1.0;" width="6" x="329" y="100.7979"/><text fill="#000000" font-family="sans-serif" font-size="11" lengthAdjust="spacingAndGlyphs" textLength="101" x="341" y="106.4551">rewards: Loot[0..n]</text><rect fill="none" height="6" style="stroke: #C82930; stroke-width: 1.0;" width="6" x="329" y="113.7529"/><text fill="#000000" font-family="sans-serif" font-size="11" lengthAdjust="spacingAndGlyphs" textLength="134" x="341" y="119.4102">prerequsites: Quest[0..n]</text><rect fill="none" height="6" style="stroke: #C82930; stroke-width: 1.0;" width="6" x="329" y="126.708"/><text fill="#000000" font-family="sans-serif" font-size="11" lengthAdjust="spacingAndGlyphs" textLength="176" x="341" y="132.3652">achievements: Achievement[0..n]</text><rect fill="none" height="6" style="stroke: #C82930; stroke-width: 1.0;" width="6" x="329" y="139.6631"/><text fill="#000000" font-family="sans-serif" font-size="11" lengthAdjust="spacingAndGlyphs" textLength="90" x="341" y="145.3203">isActive: Boolean</text><line style="stroke: #A80036; stroke-width: 1.0;" x1="322" x2="551" y1="151.6406" y2="151.6406"/><ellipse cx="332" cy="180.5732" fill="#84BE84" rx="3" ry="3" style="stroke: #038048; stroke-width: 1.0;"/><text fill="#000000" font-family="sans-serif" font-size="11" lengthAdjust="spacingAndGlyphs" textLength="90" x="341" y="183.2305">String getName()</text><ellipse cx="332" cy="193.5283" fill="#84BE84" rx="3" ry="3" style="stroke: #038048; stroke-width: 1.0;"/><text fill="#000000" font-family="sans-serif" font-size="11" lengthAdjust="spacingAndGlyphs" textLength="122" x="341" y="196.1855">String getDescription()</text><ellipse cx="332" cy="206.4834" fill="#84BE84" rx="3" ry="3" style="stroke: #038048; stroke-width: 1.0;"/><text fill="#000000" font-family="sans-serif" font-size="11" lengthAdjust="spacingAndGlyphs" textLength="78" x="341" y="209.1406">bool getState()</text><ellipse cx="332" cy="219.4385" fill="#84BE84" rx="3" ry="3" style="stroke: #038048; stroke-width: 1.0;"/><text fill="#000000" font-family="sans-serif" font-size="11" lengthAdjust="spacingAndGlyphs" textLength="95" x="341" y="222.0957">bool isComplete()</text><ellipse cx="332" cy="232.3936" fill="#84BE84" rx="3" ry="3" style="stroke: #038048; stroke-width: 1.0;"/><text fill="#000000" font-family="sans-serif" font-size="11" lengthAdjust="spacingAndGlyphs" textLength="94" x="341" y="235.0508">bool getIsActive()</text><line style="stroke: #A80036; stroke-width: 1.0; stroke-dasharray: 1.0,2.0;" x1="322" x2="417" y1="166.1182" y2="166.1182"/><text fill="#000000" font-family="sans-serif" font-size="11" lengthAdjust="spacingAndGlyphs" textLength="39" x="417" y="169.7754">Getters</text><line style="stroke: #A80036; stroke-width: 1.0; stroke-dasharray: 1.0,2.0;" x1="456" x2="551" y1="166.1182" y2="166.1182"/><ellipse cx="332" cy="262.3037" fill="#84BE84" rx="3" ry="3" style="stroke: #038048; stroke-width: 1.0;"/><text fill="#000000" font-family="sans-serif" font-size="11" lengthAdjust="spacingAndGlyphs" textLength="181" x="341" y="264.9609">String[] getObjectiveDisplayText()</text><ellipse cx="332" cy="275.2588" fill="#84BE84" rx="3" ry="3" style="stroke: #038048; stroke-width: 1.0;"/><text fill="#000000" font-family="sans-serif" font-size="11" lengthAdjust="spacingAndGlyphs" textLength="176" x="341" y="277.916">String[] getRewardsDisplayText()</text><line style="stroke: #A80036; stroke-width: 1.0; stroke-dasharray: 1.0,2.0;" x1="322" x2="409" y1="247.8486" y2="247.8486"/><text fill="#000000" font-family="sans-serif" font-size="11" lengthAdjust="spacingAndGlyphs" textLength="55" x="409" y="251.5059">UI Helpers</text><line style="stroke: #A80036; stroke-width: 1.0; stroke-dasharray: 1.0,2.0;" x1="464" x2="551" y1="247.8486" y2="247.8486"/><rect fill="#F24D5C" height="6" style="stroke: #C82930; stroke-width: 1.0;" width="6" x="329" y="302.1689"/><text fill="#000000" font-family="sans-serif" font-size="11" lengthAdjust="spacingAndGlyphs" textLength="193" x="341" y="307.8262">onPrerequsiteComplete(GameEvent)</text><line style="stroke: #A80036; stroke-width: 1.0; stroke-dasharray: 1.0,2.0;" x1="322" x2="419" y1="290.7139" y2="290.7139"/><text fill="#000000" font-family="sans-serif" font-size="11" lengthAdjust="spacingAndGlyphs" textLength="35" x="419" y="294.3711">Events</text><line style="stroke: #A80036; stroke-width: 1.0; stroke-dasharray: 1.0,2.0;" x1="454" x2="551" y1="290.7139" y2="290.7139"/><line style="stroke: #A80036; stroke-width: 1.0; stroke-dasharray: 1.0,2.0;" x1="322" x2="551" y1="314.1465" y2="314.1465"/><rect fill="#F24D5C" height="6" style="stroke: #C82930; stroke-width: 1.0;" width="6" x="329" y="323.124"/><text fill="#000000" font-family="sans-serif" font-size="11" lengthAdjust="spacingAndGlyphs" textLength="205" x="341" y="328.7813">onObjectiveComplete(QuestObjective)</text><!--class QuestState--><rect fill="#FEFECE" filter="url(#f1dk41bfoox4n1)" height="111.041" id="QuestState" style="stroke: #A80036; stroke-width: 1.5;" width="93" x="6" y="445"/><ellipse cx="21" cy="464.1328" fill="#EB937F" rx="11" ry="11" style="stroke: #A80036; stroke-width: 1.0;"/><path d="M25.1143,470.1328 L17.3945,470.1328 L17.3945,457.7397 L25.1143,457.7397 L25.1143,459.8979 L19.8433,459.8979 L19.8433,462.5708 L24.6162,462.5708 L24.6162,464.729 L19.8433,464.729 L19.8433,467.9746 L25.1143,467.9746 Z "/><text fill="#000000" font-family="sans-serif" font-size="12" font-style="italic" lengthAdjust="spacingAndGlyphs" textLength="44" x="43.5" y="461.6016">«enum»</text><text fill="#000000" font-family="sans-serif" font-size="12" lengthAdjust="spacingAndGlyphs" textLength="61" x="35" y="475.7344">QuestState</text><line style="stroke: #A80036; stroke-width: 1.5;" x1="7" x2="98" y1="483.2656" y2="483.2656"/><text fill="#000000" font-family="sans-serif" font-size="11" lengthAdjust="spacingAndGlyphs" textLength="74" x="12" y="497.9004">UNAVAILABLE</text><text fill="#000000" font-family="sans-serif" font-size="11" lengthAdjust="spacingAndGlyphs" textLength="58" x="12" y="510.8555">AVAILABLE</text><text fill="#000000" font-family="sans-serif" font-size="11" lengthAdjust="spacingAndGlyphs" textLength="55" x="12" y="523.8105">OBTAINED</text><text fill="#000000" font-family="sans-serif" font-size="11" lengthAdjust="spacingAndGlyphs" textLength="72" x="12" y="536.7656">IN_PROGRESS</text><text fill="#000000" font-family="sans-serif" font-size="11" lengthAdjust="spacingAndGlyphs" textLength="65" x="12" y="549.7207">COMPLETED</text><!--class QuestObjective--><rect fill="#FEFECE" filter="url(#f1dk41bfoox4n1)" height="211.4609" id="QuestObjective" style="stroke: #A80036; stroke-width: 1.5;" width="181" x="134" y="395"/><ellipse cx="176.9" cy="411" fill="#ADD1B2" rx="11" ry="11" style="stroke: #A80036; stroke-width: 1.0;"/><path d="M179.8731,416.6431 Q179.2921,416.9419 178.6529,417.0913 Q178.0138,417.2407 177.3082,417.2407 Q174.8014,417.2407 173.4815,415.5889 Q172.1617,413.937 172.1617,410.8159 Q172.1617,407.6865 173.4815,406.0347 Q174.8014,404.3828 177.3082,404.3828 Q178.0138,404.3828 178.6612,404.5322 Q179.3087,404.6816 179.8731,404.9805 L179.8731,407.7031 Q179.2423,407.1221 178.6488,406.8523 Q178.0553,406.5825 177.4244,406.5825 Q176.0797,406.5825 175.3949,407.6492 Q174.7101,408.7158 174.7101,410.8159 Q174.7101,412.9077 175.3949,413.9744 Q176.0797,415.041 177.4244,415.041 Q178.0553,415.041 178.6488,414.7712 Q179.2423,414.5015 179.8731,413.9204 Z "/><text fill="#000000" font-family="sans-serif" font-size="12" lengthAdjust="spacingAndGlyphs" textLength="87" x="197.1" y="415.5352">QuestObjective</text><line style="stroke: #A80036; stroke-width: 1.5;" x1="135" x2="314" y1="427" y2="427"/><rect fill="none" height="6" style="stroke: #C82930; stroke-width: 1.0;" width="6" x="142" y="435.9775"/><text fill="#000000" font-family="sans-serif" font-size="11" lengthAdjust="spacingAndGlyphs" textLength="99" x="154" y="441.6348">description: String</text><rect fill="none" height="6" style="stroke: #C82930; stroke-width: 1.0;" width="6" x="142" y="448.9326"/><text fill="#000000" font-family="sans-serif" font-size="11" lengthAdjust="spacingAndGlyphs" textLength="155" x="154" y="454.5898">target: QuestObjectiveTarget</text><rect fill="none" height="6" style="stroke: #C82930; stroke-width: 1.0;" width="6" x="142" y="461.8877"/><text fill="#000000" font-family="sans-serif" font-size="11" lengthAdjust="spacingAndGlyphs" textLength="96" x="154" y="467.5449">currentValue: uint</text><rect fill="none" height="6" style="stroke: #C82930; stroke-width: 1.0;" width="6" x="142" y="474.8428"/><text fill="#000000" font-family="sans-serif" font-size="11" lengthAdjust="spacingAndGlyphs" textLength="79" x="154" y="480.5">goalValue: uint</text><rect fill="none" height="6" style="stroke: #C82930; stroke-width: 1.0;" width="6" x="142" y="487.7979"/><text fill="#000000" font-family="sans-serif" font-size="11" lengthAdjust="spacingAndGlyphs" textLength="73" x="154" y="493.4551">parent: Quest</text><line style="stroke: #A80036; stroke-width: 1.0;" x1="135" x2="314" y1="499.7754" y2="499.7754"/><ellipse cx="145" cy="528.708" fill="#84BE84" rx="3" ry="3" style="stroke: #038048; stroke-width: 1.0;"/><text fill="#000000" font-family="sans-serif" font-size="11" lengthAdjust="spacingAndGlyphs" textLength="95" x="154" y="531.3652">bool isComplete()</text><ellipse cx="145" cy="541.6631" fill="#84BE84" rx="3" ry="3" style="stroke: #038048; stroke-width: 1.0;"/><text fill="#000000" font-family="sans-serif" font-size="11" lengthAdjust="spacingAndGlyphs" textLength="122" x="154" y="544.3203">String getDescription()</text><ellipse cx="145" cy="554.6182" fill="#84BE84" rx="3" ry="3" style="stroke: #038048; stroke-width: 1.0;"/><text fill="#000000" font-family="sans-serif" font-size="11" lengthAdjust="spacingAndGlyphs" textLength="97" x="154" y="557.2754">uint getProgress()</text><ellipse cx="145" cy="567.5732" fill="#84BE84" rx="3" ry="3" style="stroke: #038048; stroke-width: 1.0;"/><text fill="#000000" font-family="sans-serif" font-size="11" lengthAdjust="spacingAndGlyphs" textLength="73" x="154" y="570.2305">uint getGoal()</text><line style="stroke: #A80036; stroke-width: 1.0; stroke-dasharray: 1.0,2.0;" x1="135" x2="205" y1="514.2529" y2="514.2529"/><text fill="#000000" font-family="sans-serif" font-size="11" lengthAdjust="spacingAndGlyphs" textLength="39" x="205" y="517.9102">Getters</text><line style="stroke: #A80036; stroke-width: 1.0; stroke-dasharray: 1.0,2.0;" x1="244" x2="314" y1="514.2529" y2="514.2529"/><rect fill="#F24D5C" height="6" style="stroke: #C82930; stroke-width: 1.0;" width="6" x="142" y="594.4834"/><text fill="#000000" font-family="sans-serif" font-size="11" lengthAdjust="spacingAndGlyphs" textLength="116" x="154" y="600.1406">onTarget(GameEvent)</text><line style="stroke: #A80036; stroke-width: 1.0; stroke-dasharray: 1.0,2.0;" x1="135" x2="207" y1="583.0283" y2="583.0283"/><text fill="#000000" font-family="sans-serif" font-size="11" lengthAdjust="spacingAndGlyphs" textLength="35" x="207" y="586.6855">Events</text><line style="stroke: #A80036; stroke-width: 1.0; stroke-dasharray: 1.0,2.0;" x1="242" x2="314" y1="583.0283" y2="583.0283"/><!--class Loot--><rect fill="#FEFECE" filter="url(#f1dk41bfoox4n1)" height="32" id="Loot" style="stroke: #A80036; stroke-width: 1.5;" width="56" x="350.5" y="484.5"/><ellipse cx="365.5" cy="500.5" fill="#ADD1B2" rx="11" ry="11" style="stroke: #A80036; stroke-width: 1.0;"/><path d="M368.4731,506.1431 Q367.8921,506.4419 367.2529,506.5913 Q366.6138,506.7407 365.9082,506.7407 Q363.4014,506.7407 362.0815,505.0889 Q360.7617,503.437 360.7617,500.3159 Q360.7617,497.1865 362.0815,495.5347 Q363.4014,493.8828 365.9082,493.8828 Q366.6138,493.8828 367.2612,494.0322 Q367.9087,494.1816 368.4731,494.4805 L368.4731,497.2031 Q367.8423,496.6221 367.2488,496.3523 Q366.6553,496.0825 366.0244,496.0825 Q364.6797,496.0825 363.9949,497.1492 Q363.3101,498.2158 363.3101,500.3159 Q363.3101,502.4077 363.9949,503.4744 Q364.6797,504.541 366.0244,504.541 Q366.6553,504.541 367.2488,504.2712 Q367.8423,504.0015 368.4731,503.4204 Z "/><text fill="#000000" font-family="sans-serif" font-size="12" lengthAdjust="spacingAndGlyphs" textLength="24" x="379.5" y="505.0352">Loot</text><!--class Achievement--><rect fill="#FEFECE" filter="url(#f1dk41bfoox4n1)" height="32" id="Achievement" style="stroke: #A80036; stroke-width: 1.5;" width="105" x="442" y="484.5"/><ellipse cx="457" cy="500.5" fill="#ADD1B2" rx="11" ry="11" style="stroke: #A80036; stroke-width: 1.0;"/><path d="M459.9731,506.1431 Q459.3921,506.4419 458.7529,506.5913 Q458.1138,506.7407 457.4082,506.7407 Q454.9014,506.7407 453.5815,505.0889 Q452.2617,503.437 452.2617,500.3159 Q452.2617,497.1865 453.5815,495.5347 Q454.9014,493.8828 457.4082,493.8828 Q458.1138,493.8828 458.7612,494.0322 Q459.4087,494.1816 459.9731,494.4805 L459.9731,497.2031 Q459.3423,496.6221 458.7488,496.3523 Q458.1553,496.0825 457.5244,496.0825 Q456.1797,496.0825 455.4949,497.1492 Q454.8101,498.2158 454.8101,500.3159 Q454.8101,502.4077 455.4949,503.4744 Q456.1797,504.541 457.5244,504.541 Q458.1553,504.541 458.7488,504.2712 Q459.3423,504.0015 459.9731,503.4204 Z "/><text fill="#000000" font-family="sans-serif" font-size="12" lengthAdjust="spacingAndGlyphs" textLength="73" x="471" y="505.0352">Achievement</text><!--class QuestObjectiveTarget--><rect fill="#FEFECE" filter="url(#f1dk41bfoox4n1)" height="72.1758" id="QuestObjectiveTarget" style="stroke: #A80036; stroke-width: 1.5;" width="131" x="159" y="666"/><text fill="#000000" font-family="sans-serif" font-size="12" font-style="italic" lengthAdjust="spacingAndGlyphs" textLength="67" x="191" y="682.6016">«dataType»</text><text fill="#000000" font-family="sans-serif" font-size="12" lengthAdjust="spacingAndGlyphs" textLength="125" x="162" y="696.7344">QuestObjectiveTarget</text><line style="stroke: #A80036; stroke-width: 1.5;" x1="160" x2="289" y1="704.2656" y2="704.2656"/><text fill="#000000" font-family="sans-serif" font-size="11" lengthAdjust="spacingAndGlyphs" textLength="93" x="165" y="718.9004">eventType: String</text><text fill="#000000" font-family="sans-serif" font-size="11" lengthAdjust="spacingAndGlyphs" textLength="96" x="165" y="731.8555">eventValue: String</text><!--class GameEventListener--><rect fill="#FEFECE" filter="url(#f1dk41bfoox4n1)" height="32" id="GameEventListener" style="stroke: #A80036; stroke-width: 1.5;" width="142" x="427.5" y="686"/><ellipse cx="442.5" cy="702" fill="#B4A7E5" rx="11" ry="11" style="stroke: #A80036; stroke-width: 1.0;"/><path d="M438.4277,697.7651 L438.4277,695.6069 L445.8071,695.6069 L445.8071,697.7651 L443.3418,697.7651 L443.3418,705.8418 L445.8071,705.8418 L445.8071,708 L438.4277,708 L438.4277,705.8418 L440.8931,705.8418 L440.8931,697.7651 Z "/><text fill="#000000" font-family="sans-serif" font-size="12" font-style="italic" lengthAdjust="spacingAndGlyphs" textLength="110" x="456.5" y="706.5352">GameEventListener</text><!--class GameEventDispatcher--><rect fill="#FEFECE" filter="url(#f1dk41bfoox4n1)" height="32" id="GameEventDispatcher" style="stroke: #A80036; stroke-width: 1.5;" width="159" x="654" y="484.5"/><ellipse cx="669" cy="500.5" fill="#B4A7E5" rx="11" ry="11" style="stroke: #A80036; stroke-width: 1.0;"/><path d="M664.9277,496.2651 L664.9277,494.1069 L672.3071,494.1069 L672.3071,496.2651 L669.8418,496.2651 L669.8418,504.3418 L672.3071,504.3418 L672.3071,506.5 L664.9277,506.5 L664.9277,504.3418 L667.3931,504.3418 L667.3931,496.2651 Z "/><text fill="#000000" font-family="sans-serif" font-size="12" font-style="italic" lengthAdjust="spacingAndGlyphs" textLength="127" x="683" y="505.0352">GameEventDispatcher</text><!--link Quest to QuestState--><path d="M309.7856,242.7501 C246.8311,282.2024 172.4669,335.308 116.5,395 C102.7265,409.6902 90.439,427.8165 80.4033,444.8749 " fill="none" id="Quest-QuestState" style="stroke: #A80036; stroke-width: 1.0;"/><polygon fill="#A80036" points="320.9954,235.793,313.7881,235.5583,310.7994,242.1209,318.0067,242.3556,320.9954,235.793" style="stroke: #A80036; stroke-width: 1.0;"/><!--link Quest to QuestObjective--><path d="M324.0662,345.9846 C313.3427,362.6262 302.7073,379.1311 292.6012,394.8146 " fill="none" id="Quest-QuestObjective" style="stroke: #A80036; stroke-width: 1.0;"/><polygon fill="#A80036" points="331.1211,335.0361,324.5087,337.913,324.6211,345.1232,331.2335,342.2463,331.1211,335.0361" style="stroke: #A80036; stroke-width: 1.0;"/><!--link Quest to Loot--><path d="M407.6699,335.0361 C397.0369,395.351 386.3734,455.8386 381.3976,484.0635 " fill="none" id="Quest-Loot" style="stroke: #A80036; stroke-width: 1.0;"/><!--link Quest to Achievement--><path d="M465.3301,335.0361 C475.9631,395.351 486.6266,455.8386 491.6024,484.0635 " fill="none" id="Quest-Achievement" style="stroke: #A80036; stroke-width: 1.0;"/><!--link QuestObjective to QuestObjectiveTarget--><path d="M224.5,619.2811 C224.5,636.1657 224.5,652.3519 224.5,665.8586 " fill="none" id="QuestObjective-QuestObjectiveTarget" style="stroke: #A80036; stroke-width: 1.0;"/><polygon fill="#A80036" points="224.5,606.266,220.5,612.266,224.5,618.266,228.5,612.266,224.5,606.266" style="stroke: #A80036; stroke-width: 1.0;"/><!--link Quest to GameEventListener--><path d="M542.623,335.1866 C551.5262,354.7389 559.1536,374.9067 564.5,395 C588.6134,485.6246 592.3157,516.4424 564.5,606 C557.0826,629.8816 541.4348,653.088 527.2368,670.7008 " fill="none" id="Quest-GameEventListener" style="stroke: #A80036; stroke-width: 1.0;"/><polygon fill="none" points="532.4635,675.3591,514.1332,685.9894,521.8336,666.2484,532.4635,675.3591" style="stroke: #A80036; stroke-width: 1.0;"/><!--link Quest to GameEventDispatcher--><path d="M552.1784,299.6421 C608.0624,361.5473 670.4744,430.6838 705.569,469.5596 " fill="none" id="Quest-GameEventDispatcher" style="stroke: #A80036; stroke-width: 1.0;"/><polygon fill="none" points="710.8359,464.9476,719.0417,484.4839,700.444,474.3288,710.8359,464.9476" style="stroke: #A80036; stroke-width: 1.0;"/><!--link QuestObjective to GameEventListener--><path d="M315.2574,591.3712 C321.3025,596.4707 327.4108,601.39 333.5,606 C369.561,633.3008 414.0665,658.7765 447.7643,676.6141 " fill="none" id="QuestObjective-GameEventListener" style="stroke: #A80036; stroke-width: 1.0;"/><polygon fill="none" points="451.2077,670.5146,465.73,685.9453,444.7547,682.9388,451.2077,670.5146" style="stroke: #A80036; stroke-width: 1.0;"/><!--
@startuml
Quest *- - QuestState
Quest *- - QuestObjective
Quest - - Loot
Quest - - Achievement
QuestObjective *- - QuestObjectiveTarget
Quest - -|> GameEventListener
Quest - -|> GameEventDispatcher
QuestObjective - -|> GameEventListener

interface GameEventListener
interface GameEventDispatcher

class Quest {
    - name: String
    - description: String
    - state: QuestState
    - objectives: QuestObjective[1..n]
    - rewards: Loot[0..n]
    - prerequsites: Quest[0..n]
    - achievements: Achievement[0..n]
    - isActive: Boolean
    - -
    .. Getters ..
    + String getName()
    + String getDescription()
    + bool getState()
    + bool isComplete()
    + bool getIsActive()
    .. UI Helpers ..
    + String[] getObjectiveDisplayText()
    + String[] getRewardsDisplayText()
    .. Events ..
    - onPrerequsiteComplete(GameEvent)
    ..
    - onObjectiveComplete(QuestObjective)
}

class QuestObjective {
    - description: String
    - target: QuestObjectiveTarget
    - currentValue: uint
    - goalValue: uint
    - parent: Quest
    - -
    .. Getters ..
    + bool isComplete()
    + String getDescription()
    + uint getProgress()
    + uint getGoal()
    .. Events ..
    - onTarget(GameEvent)
}

enum QuestState <<enum>> {
    UNAVAILABLE
    AVAILABLE  
    OBTAINED   
    IN_PROGRESS
    COMPLETED 
}

class QuestObjectiveTarget <<dataType>> {
    eventType: String
    eventValue: String
}

hide QuestObjectiveTarget circle
hide interface methods
hide interface fields
hide Loot methods
hide Loot fields
hide Achievement methods
hide Achievement fields
hide QuestState methods
hide QuestObjectiveTarget methods
@enduml

PlantUML version 1.2017.20(Mon Dec 11 10:57:05 CST 2017)
(GPL source distribution)
Java Runtime: Java(TM) SE Runtime Environment
JVM: Java HotSpot(TM) 64-Bit Server VM
Java Version: 9.0.1+11
Operating System: Mac OS X
OS Version: 10.13.2
Default Encoding: UTF-8
Language: en
Country: US
--></g></svg>