<?xml version="1.0" encoding="UTF-8" standalone="no"?><svg xmlns="http://www.w3.org/2000/svg" xmlns:xlink="http://www.w3.org/1999/xlink" contentScriptType="application/ecmascript" contentStyleType="text/css" height="696px" preserveAspectRatio="none" style="width:672px;height:696px;" version="1.1" viewBox="0 0 672 696" width="672px" zoomAndPan="magnify"><defs><filter height="300%" id="fr0bfojlh6oiz" width="300%" x="-1" y="-1"><feGaussianBlur result="blurOut" stdDeviation="2.0"/><feColorMatrix in="blurOut" result="blurOut2" type="matrix" values="0 0 0 0 0 0 0 0 0 0 0 0 0 0 0 0 0 0 .4 0"/><feOffset dx="4.0" dy="4.0" in="blurOut2" result="blurOut3"/><feBlend in="SourceGraphic" in2="blurOut3" mode="normal"/></filter></defs><g><rect fill="#FEFECE" filter="url(#fr0bfojlh6oiz)" height="64.7539" rx="12.5" ry="12.5" style="stroke: #A80036; stroke-width: 1.5;" width="197" x="237.5311" y="8"/><line style="stroke: #A80036; stroke-width: 1.5;" x1="237.5311" x2="434.5311" y1="34.4883" y2="34.4883"/><text fill="#000000" font-family="sans-serif" font-size="14" lengthAdjust="spacingAndGlyphs" textLength="79" x="296.5311" y="26.5352">Unavailable</text><text fill="#000000" font-family="sans-serif" font-size="12" lengthAdjust="spacingAndGlyphs" textLength="170" x="242.5311" y="51.0898">The quest is not shown to the</text><text fill="#000000" font-family="sans-serif" font-size="12" lengthAdjust="spacingAndGlyphs" textLength="177" x="242.5311" y="65.2227">user, and cannot be accepted.</text><rect fill="#FEFECE" filter="url(#fr0bfojlh6oiz)" height="64.7539" rx="12.5" ry="12.5" style="stroke: #A80036; stroke-width: 1.5;" width="175" x="153.5311" y="165"/><line style="stroke: #A80036; stroke-width: 1.5;" x1="153.5311" x2="328.5311" y1="191.4883" y2="191.4883"/><text fill="#000000" font-family="sans-serif" font-size="14" lengthAdjust="spacingAndGlyphs" textLength="62" x="210.0311" y="183.5352">Available</text><text fill="#000000" font-family="sans-serif" font-size="12" lengthAdjust="spacingAndGlyphs" textLength="148" x="158.5311" y="208.0898">The quest is shown to the</text><text fill="#000000" font-family="sans-serif" font-size="12" lengthAdjust="spacingAndGlyphs" textLength="155" x="158.5311" y="222.2227">user and can be accepted.</text><rect fill="#FEFECE" filter="url(#fr0bfojlh6oiz)" height="64.7539" rx="12.5" ry="12.5" style="stroke: #A80036; stroke-width: 1.5;" width="219" x="281.5311" y="322"/><line style="stroke: #A80036; stroke-width: 1.5;" x1="281.5311" x2="500.5311" y1="348.4883" y2="348.4883"/><text fill="#000000" font-family="sans-serif" font-size="14" lengthAdjust="spacingAndGlyphs" textLength="63" x="359.5311" y="340.5352">Obtained</text><text fill="#000000" font-family="sans-serif" font-size="12" lengthAdjust="spacingAndGlyphs" textLength="199" x="286.5311" y="365.0898">The quest has been accepted, but</text><text fill="#000000" font-family="sans-serif" font-size="12" lengthAdjust="spacingAndGlyphs" textLength="189" x="286.5311" y="379.2227">no objectives have been started.</text><rect fill="#FEFECE" filter="url(#fr0bfojlh6oiz)" height="64.7539" rx="12.5" ry="12.5" style="stroke: #A80036; stroke-width: 1.5;" width="226" x="360.0311" y="479"/><line style="stroke: #A80036; stroke-width: 1.5;" x1="360.0311" x2="586.0311" y1="505.4883" y2="505.4883"/><text fill="#000000" font-family="sans-serif" font-size="14" lengthAdjust="spacingAndGlyphs" textLength="73" x="436.5311" y="497.5352">InProgress</text><text fill="#000000" font-family="sans-serif" font-size="12" lengthAdjust="spacingAndGlyphs" textLength="202" x="365.0311" y="522.0898">The quest has been accepted, and</text><text fill="#000000" font-family="sans-serif" font-size="12" lengthAdjust="spacingAndGlyphs" textLength="206" x="365.0311" y="536.2227">some objectives have been started.</text><rect fill="#FEFECE" filter="url(#fr0bfojlh6oiz)" height="64.7539" rx="12.5" ry="12.5" style="stroke: #A80036; stroke-width: 1.5;" width="127" x="409.5311" y="621"/><line style="stroke: #A80036; stroke-width: 1.5;" x1="409.5311" x2="536.5311" y1="647.4883" y2="647.4883"/><text fill="#000000" font-family="sans-serif" font-size="14" lengthAdjust="spacingAndGlyphs" textLength="66" x="440.0311" y="639.5352">Complete</text><text fill="#000000" font-family="sans-serif" font-size="12" lengthAdjust="spacingAndGlyphs" textLength="107" x="414.5311" y="664.0898">All objectives have</text><text fill="#000000" font-family="sans-serif" font-size="12" lengthAdjust="spacingAndGlyphs" textLength="98" x="414.5311" y="678.2227">been completed.</text><!--link Unavailable to Available--><path d="M237.2075,46.4158 C154.1199,53.6977 44.602,69.5031 17.0311,103 C-25.161,154.2608 69.0637,178.2054 147.9947,189.0493 " fill="none" id="Unavailable-Available" style="stroke: #A80036; stroke-width: 1.0;"/><polygon fill="#A80036" points="153.17,189.7448,144.783,184.5816,148.2146,189.0788,143.7174,192.5104,153.17,189.7448" style="stroke: #A80036; stroke-width: 1.0;"/><text fill="#000000" font-family="sans-serif" font-size="13" lengthAdjust="spacingAndGlyphs" textLength="166" x="41.0311" y="116.5684">Quest ACTIVE in database.</text><text fill="#000000" font-family="sans-serif" font-size="13" lengthAdjust="spacingAndGlyphs" textLength="212" x="18.0311" y="131.8789">All prerequsite quests COMPLETE.</text><!--link Available to Unavailable--><path d="M247.1996,164.727 C251.7817,145.7062 259.3077,121.8579 271.0311,103 C276.7845,93.7452 284.215,84.9023 291.985,76.9317 " fill="none" id="Available-Unavailable" style="stroke: #A80036; stroke-width: 1.0;"/><polygon fill="#A80036" points="295.8208,73.0909,286.6307,76.6324,292.2876,76.6287,292.2912,82.2856,295.8208,73.0909" style="stroke: #A80036; stroke-width: 1.0;"/><text fill="#000000" font-family="sans-serif" font-size="13" lengthAdjust="spacingAndGlyphs" textLength="100" x="272.0311" y="116.5684">Quest INACTIVE</text><text fill="#000000" font-family="sans-serif" font-size="13" lengthAdjust="spacingAndGlyphs" textLength="76" x="284.0311" y="131.8789">in database.</text><!--link Available to Obtained--><path d="M236.3705,230.1118 C235.3204,249.7756 237.3159,274.3486 250.0311,292 C257.7683,302.7409 267.7756,311.6642 278.8876,319.0713 " fill="none" id="Available-Obtained" style="stroke: #A80036; stroke-width: 1.0;"/><polygon fill="#A80036" points="283.3684,321.9416,277.9475,313.7188,279.1581,319.2446,273.6323,320.4552,283.3684,321.9416" style="stroke: #A80036; stroke-width: 1.0;"/><text fill="#000000" font-family="sans-serif" font-size="13" lengthAdjust="spacingAndGlyphs" textLength="121" x="251.0311" y="281.0684">User accepts Quest</text><!--link Obtained to InProgress--><path d="M384.0972,387.193 C381.7131,406.1863 381.6398,430.0337 391.0311,449 C395.9458,458.9254 403.275,467.704 411.5645,475.3104 " fill="none" id="Obtained-InProgress" style="stroke: #A80036; stroke-width: 1.0;"/><polygon fill="#A80036" points="415.7047,478.9502,411.5863,470.0038,411.9495,475.649,406.3043,476.0122,415.7047,478.9502" style="stroke: #A80036; stroke-width: 1.0;"/><text fill="#000000" font-family="sans-serif" font-size="13" lengthAdjust="spacingAndGlyphs" textLength="135" x="392.0311" y="430.5684">A QuestObjective has</text><text fill="#000000" font-family="sans-serif" font-size="13" lengthAdjust="spacingAndGlyphs" textLength="118" x="400.5311" y="445.8789">non-zero progress</text><!--link InProgress to Complete--><path d="M473.0311,544.0777 C473.0311,565.3029 473.0311,593.0838 473.0311,615.3417 " fill="none" id="InProgress-Complete" style="stroke: #A80036; stroke-width: 1.0;"/><polygon fill="#A80036" points="473.0311,620.5822,477.0311,611.5822,473.0311,615.5822,469.0311,611.5822,473.0311,620.5822" style="stroke: #A80036; stroke-width: 1.0;"/><text fill="#000000" font-family="sans-serif" font-size="13" lengthAdjust="spacingAndGlyphs" textLength="186" x="474.0311" y="587.5684">All QuestObjectives complete</text><!--link Obtained to Unavailable--><path d="M394.5047,321.7478 C398.5349,272.775 401.7867,178.1819 377.0311,103 C374.1545,94.2639 369.7281,85.5745 364.8306,77.5756 " fill="none" id="Obtained-Unavailable" style="stroke: #A80036; stroke-width: 1.0;"/><polygon fill="#A80036" points="362.0681,73.2069,363.4973,82.9515,364.7403,77.4329,370.2589,78.676,362.0681,73.2069" style="stroke: #A80036; stroke-width: 1.0;"/><text fill="#000000" font-family="sans-serif" font-size="13" lengthAdjust="spacingAndGlyphs" textLength="100" x="398.0311" y="195.0684">Quest INACTIVE</text><text fill="#000000" font-family="sans-serif" font-size="13" lengthAdjust="spacingAndGlyphs" textLength="76" x="410.0311" y="210.3789">in database.</text><!--link InProgress to Unavailable--><path d="M512.3991,478.8926 C520.392,470.1001 527.6773,459.9547 532.0311,449 C578.8304,331.2489 570.0108,274.9503 507.0311,165 C485.0213,126.5751 445.8053,96.7257 410.4763,75.8986 " fill="none" id="InProgress-Unavailable" style="stroke: #A80036; stroke-width: 1.0;"/><polygon fill="#A80036" points="405.7431,73.1479,411.5147,81.1284,410.0661,75.6602,415.5343,74.2116,405.7431,73.1479" style="stroke: #A80036; stroke-width: 1.0;"/><text fill="#000000" font-family="sans-serif" font-size="13" lengthAdjust="spacingAndGlyphs" textLength="100" x="559.0311" y="273.5684">Quest INACTIVE</text><text fill="#000000" font-family="sans-serif" font-size="13" lengthAdjust="spacingAndGlyphs" textLength="76" x="571.0311" y="288.8789">in database.</text><!--
@startuml
state Unavailable
state Available
state Obtained
state InProgress
state Complete

Unavailable - -> Available : Quest ACTIVE in database.\nAll prerequsite quests COMPLETE.
Available - -> Obtained : User accepts Quest
Obtained - -> InProgress : A QuestObjective has\nnon-zero progress
InProgress - -> Complete : All QuestObjectives complete

Available - -> Unavailable : Quest INACTIVE\nin database.
Obtained - -> Unavailable : Quest INACTIVE\nin database.
InProgress - -> Unavailable : Quest INACTIVE\nin database.

Unavailable : The quest is not shown to the
Unavailable : user, and cannot be accepted.

Available : The quest is shown to the
Available : user and can be accepted.

Obtained : The quest has been accepted, but
Obtained : no objectives have been started.

InProgress : The quest has been accepted, and
InProgress : some objectives have been started.

Complete : All objectives have
Complete : been completed.
@enduml

PlantUML version 1.2017.20(Mon Dec 11 10:57:05 CST 2017)
(GPL source distribution)
Java Runtime: Java(TM) SE Runtime Environment
JVM: Java HotSpot(TM) 64-Bit Server VM
Java Version: 9.0.1+11
Operating System: Mac OS X
OS Version: 10.13.2
Default Encoding: UTF-8
Language: en
Country: US
--></g></svg>